<?xml version="1.0" encoding="UTF-8"?>
<svg xmlns="http://www.w3.org/2000/svg" xmlns:xlink="http://www.w3.org/1999/xlink" width="2750px" height="1200px" viewBox="0 0 2750 1200" version="1.1">
<defs>
<clipPath id="clip1">
  <path d="M 1066 393.601562 L 1437.332031 393.601562 L 1437.332031 623.664062 L 1066 623.664062 Z M 1066 393.601562 "/>
</clipPath>
<clipPath id="clip2">
  <path d="M 1460 318.863281 L 1615 318.863281 L 1615 387 L 1460 387 Z M 1460 318.863281 "/>
</clipPath>
</defs>
<g id="surface1">
<path style=" stroke:none;fill-rule:nonzero;fill:rgb(0%,67.843137%,93.72549%);fill-opacity:1;" d="M 1106.386719 428.425781 C 1110.828125 416.226562 1122.171875 409.375 1133.257812 405.523438 C 1139.703125 403.289062 1148.410156 406.4375 1144.714844 409.648438 C 1126.011719 425.914062 1136.78125 447.335938 1156.976562 467.488281 C 1134.433594 455.136719 1115.210938 441.675781 1106.386719 428.425781 "/>
<g clip-path="url(#clip1)" clip-rule="nonzero">
<path style=" stroke:none;fill-rule:nonzero;fill:rgb(0%,67.843137%,93.72549%);fill-opacity:1;" d="M 1386.542969 519.386719 C 1358.558594 508.199219 1279.292969 479.351562 1278.175781 461.949219 C 1277.058594 444.5625 1208.882812 465.363281 1278.921875 505.125 C 1278.921875 505.125 1063.246094 465.414062 1101.089844 397.335938 C 1103.265625 393.4375 1088.398438 392.289062 1084.816406 396 C 1069.40625 412.023438 1018.988281 454.9375 1198.226562 526.710938 C 1321.691406 576.164062 1379.355469 580.726562 1391.730469 623.511719 C 1391.730469 623.511719 1497.632812 563.761719 1386.542969 519.386719 "/>
</g>
<path style=" stroke:none;fill-rule:nonzero;fill:rgb(0%,67.843137%,93.72549%);fill-opacity:1;" d="M 1141.222656 428.710938 C 1140.992188 440.574219 1149.816406 453.699219 1162.675781 466.460938 C 1154.714844 451.023438 1154.742188 436.050781 1170.582031 424.4375 C 1174.792969 421.335938 1166.601562 417.9375 1159.8125 419.960938 C 1153.453125 421.863281 1146.921875 424.636719 1141.222656 428.710938 "/>
<path style=" stroke:none;fill-rule:nonzero;fill:rgb(92.941176%,5.490196%,39.215686%);fill-opacity:1;" d="M 1654.125 389.238281 C 1587.925781 370.613281 1490.785156 373.324219 1379.097656 396.761719 C 1297.828125 376.988281 1195.191406 378.125 1195.191406 378.125 C 1347.613281 399.476562 1379.613281 436.886719 1379.613281 436.886719 C 1460.335938 411.773438 1566.582031 407.585938 1609.722656 419.386719 C 1725.453125 451.050781 1584.257812 567.3125 1441.457031 612.398438 C 1641.863281 562.636719 1719.894531 499.648438 1725.167969 455.523438 C 1728.546875 427.0625 1702.652344 402.898438 1654.125 389.238281 "/>
<g clip-path="url(#clip2)" clip-rule="nonzero">
<path style=" stroke:none;fill-rule:nonzero;fill:rgb(92.941176%,5.490196%,39.215686%);fill-opacity:1;" d="M 1614.59375 352.664062 C 1614.59375 371.289062 1580.074219 386.386719 1537.449219 386.386719 C 1494.855469 386.386719 1460.335938 371.289062 1460.335938 352.664062 C 1460.335938 334.039062 1494.855469 318.9375 1537.449219 318.9375 C 1580.074219 318.9375 1614.59375 334.039062 1614.59375 352.664062 "/>
</g>
<path style=" stroke:none;fill-rule:nonzero;fill:rgb(0%,67.843137%,93.72549%);fill-opacity:1;" d="M 812.082031 677.753906 C 824.742188 680.453125 831.101562 683.453125 831.101562 686.753906 C 831.101562 688.253906 829.496094 690.503906 826.289062 693.503906 L 737.257812 772.304688 C 734.878906 774.378906 731.242188 776.039062 726.371094 777.304688 C 721.558594 778.578125 716.574219 779.203125 711.476562 779.203125 L 708.152344 779.203125 C 702.796875 779.203125 697.667969 778.578125 692.800781 777.304688 C 687.988281 776.039062 684.378906 774.378906 682.027344 772.304688 L 592.996094 693.503906 C 589.789062 690.503906 588.183594 688.253906 588.183594 686.753906 C 588.183594 683.453125 594.515625 680.453125 607.207031 677.753906 C 614.308594 676.152344 619.722656 675.351562 623.476562 675.351562 C 627.285156 675.351562 630.152344 675.539062 632.070312 675.902344 C 633.960938 676.277344 635.792969 676.929688 637.570312 677.851562 C 639.460938 678.992188 641.238281 680.242188 642.839844 681.601562 C 644.445312 682.976562 648.570312 686.878906 655.214844 693.304688 C 661.917969 699.703125 669.109375 706.527344 676.757812 713.753906 C 684.378906 720.992188 691.566406 727.828125 698.300781 734.253906 C 705.089844 740.691406 708.898438 744.277344 709.757812 745.003906 L 774.269531 683.351562 C 776.015625 681.589844 777.535156 680.191406 778.851562 679.152344 C 782.746094 676.628906 787.472656 675.351562 793.058594 675.351562 C 798.617188 675.351562 804.976562 676.152344 812.082031 677.753906 Z M 812.082031 677.753906 "/>
<path style=" stroke:none;fill-rule:nonzero;fill:rgb(0%,67.843137%,93.72549%);fill-opacity:1;" d="M 848.769531 717.554688 C 848.769531 715.390625 848.914062 713.777344 849.226562 712.703125 C 849.515625 711.640625 850.429688 710.390625 851.976562 708.953125 C 854.957031 706.527344 863.320312 705.304688 877.070312 705.304688 C 887.382812 705.304688 894.71875 706.101562 899.070312 707.703125 C 902.738281 709.039062 904.628906 711.054688 904.800781 713.753906 C 905.03125 714.691406 905.144531 716.054688 905.144531 717.851562 L 905.144531 767.101562 C 905.144531 769.277344 904.972656 770.902344 904.6875 772.003906 C 904.371094 773.078125 903.339844 774.304688 901.59375 775.703125 C 898.84375 778.140625 890.59375 779.351562 876.84375 779.351562 C 863.234375 779.351562 854.957031 778.089844 851.976562 775.554688 C 850.429688 774.152344 849.515625 772.941406 849.226562 771.902344 C 848.914062 770.878906 848.769531 769.226562 848.769531 766.953125 Z M 901.820312 691.453125 C 900.21875 692.828125 897.351562 693.789062 893.226562 694.351562 C 889.160156 694.929688 883.746094 695.203125 876.957031 695.203125 C 870.140625 695.203125 864.695312 694.929688 860.570312 694.351562 C 856.503906 693.789062 853.695312 692.804688 852.09375 691.402344 C 850.488281 689.976562 849.515625 688.726562 849.226562 687.652344 C 848.914062 686.589844 848.769531 684.976562 848.769531 682.804688 C 848.769531 680.640625 848.914062 679.027344 849.226562 677.953125 C 849.515625 676.851562 850.429688 675.652344 851.976562 674.351562 C 854.957031 671.828125 863.320312 670.554688 877.070312 670.554688 C 890.648438 670.554688 898.84375 671.828125 901.59375 674.351562 C 903.339844 675.753906 904.371094 677.003906 904.6875 678.101562 C 904.972656 679.179688 905.144531 680.789062 905.144531 682.953125 C 905.144531 685.089844 904.972656 686.703125 904.6875 687.804688 C 904.371094 688.878906 903.425781 690.089844 901.820312 691.453125 Z M 901.820312 691.453125 "/>
<path style=" stroke:none;fill-rule:nonzero;fill:rgb(0%,67.843137%,93.72549%);fill-opacity:1;" d="M 1029.640625 730.101562 L 1008.671875 729.503906 L 1008.671875 748.953125 C 1008.671875 751.492188 1009.589844 753.328125 1011.421875 754.453125 C 1013.253906 755.589844 1016.691406 756.152344 1021.734375 756.152344 C 1026.777344 756.152344 1030.613281 756.226562 1033.308594 756.351562 C 1036.058594 756.492188 1038.921875 756.929688 1041.902344 757.652344 C 1046.855469 758.890625 1049.347656 762.039062 1049.347656 767.101562 C 1049.347656 773.003906 1046.3125 776.628906 1040.296875 777.953125 C 1037.089844 778.628906 1034.222656 779.027344 1031.703125 779.152344 C 1029.238281 779.289062 1025.660156 779.351562 1020.933594 779.351562 C 998.53125 779.351562 981.542969 777.152344 969.941406 772.753906 C 958.3125 768.328125 952.527344 760.851562 952.527344 750.351562 L 952.527344 729.503906 C 948.457031 729.804688 944.074219 729.953125 939.347656 729.953125 C 934.59375 729.953125 930.667969 729.152344 927.546875 727.554688 C 924.394531 725.953125 922.847656 723.242188 922.847656 719.402344 C 922.847656 715.539062 923.363281 712.742188 924.453125 711.003906 C 925.511719 709.277344 927.03125 708.039062 929.035156 707.304688 C 932.472656 706.078125 936.742188 705.453125 941.871094 705.453125 L 952.527344 706.003906 L 952.527344 691.503906 C 952.527344 689.378906 952.667969 687.789062 952.984375 686.753906 C 953.355469 685.726562 954.386719 684.589844 956.078125 683.351562 C 958.886719 681.027344 967.191406 679.851562 980.941406 679.851562 C 995.523438 679.851562 1004.230469 681.589844 1007.066406 685.054688 C 1008.128906 686.554688 1008.671875 688.953125 1008.671875 692.253906 L 1008.671875 706.003906 C 1018.125 705.640625 1025.285156 705.453125 1030.097656 705.453125 C 1034.96875 705.453125 1038.636719 705.539062 1041.097656 705.703125 C 1043.535156 705.839844 1046.398438 706.277344 1049.691406 707.003906 C 1055.25 708.242188 1058.058594 711.851562 1058.058594 717.851562 C 1058.058594 723.753906 1055.136719 727.378906 1049.347656 728.703125 C 1046.054688 729.339844 1043.191406 729.742188 1040.753906 729.902344 C 1038.292969 730.039062 1034.597656 730.101562 1029.640625 730.101562 Z M 1029.640625 730.101562 "/>
<path style=" stroke:none;fill-rule:nonzero;fill:rgb(0%,67.843137%,93.72549%);fill-opacity:1;" d="M 1185.976562 713.054688 C 1187.265625 707.789062 1195.773438 705.152344 1211.527344 705.152344 C 1219.921875 705.152344 1226.136719 705.441406 1230.207031 706.003906 C 1234.246094 706.578125 1237.082031 707.578125 1238.683594 709.003906 C 1240.347656 710.402344 1241.347656 711.640625 1241.664062 712.703125 C 1241.949219 713.777344 1242.121094 715.390625 1242.121094 717.554688 L 1242.121094 766.804688 C 1242.121094 768.976562 1241.949219 770.601562 1241.664062 771.703125 C 1241.347656 772.777344 1240.433594 774.003906 1238.914062 775.402344 C 1235.933594 777.839844 1228.542969 779.054688 1216.800781 779.054688 C 1205.113281 779.054688 1197.261719 778.429688 1193.308594 777.152344 C 1189.328125 775.890625 1187.007812 774.039062 1186.320312 771.601562 C 1178.355469 776.578125 1165.066406 779.054688 1146.445312 779.054688 C 1127.882812 779.054688 1110.609375 775.351562 1094.652344 767.953125 C 1078.753906 760.554688 1070.820312 751.953125 1070.820312 742.152344 C 1070.820312 732.328125 1078.839844 723.726562 1094.882812 716.351562 C 1110.925781 708.992188 1128.484375 705.304688 1147.589844 705.304688 C 1154.925781 705.304688 1161.597656 705.878906 1167.644531 707.003906 C 1173.660156 708.140625 1177.871094 709.203125 1180.246094 710.203125 C 1182.597656 711.179688 1184.515625 712.128906 1185.976562 713.054688 Z M 1127.308594 742.351562 C 1127.308594 745.453125 1130.089844 748.253906 1135.675781 750.753906 C 1141.230469 753.226562 1147.992188 754.453125 1155.957031 754.453125 C 1163.976562 754.453125 1170.621094 753.191406 1175.894531 750.652344 C 1181.164062 748.128906 1183.800781 745.339844 1183.800781 742.304688 C 1183.800781 739.242188 1181.222656 736.390625 1176.121094 733.753906 C 1171.082031 731.128906 1164.320312 729.804688 1155.839844 729.804688 C 1147.363281 729.804688 1140.488281 731.128906 1135.214844 733.753906 C 1129.945312 736.390625 1127.308594 739.253906 1127.308594 742.351562 Z M 1127.308594 742.351562 "/>
<path style=" stroke:none;fill-rule:nonzero;fill:rgb(0%,67.843137%,93.72549%);fill-opacity:1;" d="M 1267.902344 682.652344 C 1267.902344 680.492188 1268.046875 678.878906 1268.363281 677.804688 C 1268.648438 676.742188 1269.566406 675.492188 1271.113281 674.054688 C 1274.089844 671.527344 1282.457031 670.253906 1296.207031 670.253906 C 1309.324219 670.253906 1317.519531 671.527344 1320.726562 674.054688 C 1322.472656 675.492188 1323.503906 676.777344 1323.820312 677.902344 C 1324.105469 679.003906 1324.277344 680.640625 1324.277344 682.804688 L 1324.277344 747.953125 C 1324.277344 751.351562 1324.910156 753.503906 1326.226562 754.402344 C 1327.515625 755.277344 1330.351562 755.703125 1334.707031 755.703125 C 1339.117188 755.703125 1342.097656 755.789062 1343.644531 755.953125 C 1345.160156 756.089844 1346.996094 756.476562 1349.144531 757.101562 C 1353.410156 758.339844 1355.558594 761.679688 1355.558594 767.101562 C 1355.558594 773.003906 1353.410156 776.628906 1349.144531 777.953125 C 1343.558594 779.652344 1330.238281 779.929688 1309.152344 778.804688 C 1292.566406 777.878906 1281.796875 775.476562 1276.839844 771.601562 C 1270.882812 767.003906 1267.902344 759.691406 1267.902344 749.652344 Z M 1267.902344 682.652344 "/>
<path style=" stroke:none;fill-rule:nonzero;fill:rgb(92.941176%,5.490196%,39.215686%);fill-opacity:1;" d="M 1550.027344 751.972656 L 1555.871094 750.121094 C 1563.203125 748.261719 1568.359375 747.324219 1571.339844 747.324219 C 1577.984375 747.324219 1585.203125 749.949219 1592.996094 755.171875 C 1597.722656 758.472656 1600.101562 761.109375 1600.101562 763.074219 C 1600.101562 765.046875 1598.640625 766.699219 1595.746094 768.023438 C 1592.824219 769.324219 1589.445312 770.496094 1585.546875 771.523438 C 1581.652344 772.558594 1577.898438 773.546875 1574.320312 774.472656 C 1570.796875 775.410156 1563.546875 776.621094 1552.546875 778.121094 C 1541.605469 779.621094 1531.035156 780.371094 1520.808594 780.371094 C 1510.640625 780.371094 1500.328125 779.785156 1489.871094 778.621094 C 1479.472656 777.460938 1468.730469 775.496094 1457.671875 772.722656 C 1446.585938 769.960938 1436.617188 766.597656 1427.765625 762.621094 C 1418.972656 758.621094 1411.726562 753.511719 1405.996094 747.273438 C 1400.324219 741.011719 1397.515625 734.222656 1397.515625 726.921875 C 1397.515625 719.597656 1400.296875 712.960938 1405.882812 707.023438 C 1411.523438 701.058594 1418.714844 696.121094 1427.421875 692.222656 C 1436.132812 688.324219 1446.042969 685.074219 1457.214844 682.472656 C 1478.296875 677.410156 1499.4375 674.871094 1520.695312 674.871094 C 1530.835938 674.871094 1541.117188 675.558594 1551.515625 676.921875 C 1561.972656 678.261719 1569.878906 679.621094 1575.234375 681.023438 L 1582.914062 683.023438 C 1586.808594 684.058594 1589.816406 684.910156 1591.964844 685.574219 C 1597.523438 687.546875 1600.328125 689.773438 1600.328125 692.273438 C 1600.328125 694.746094 1598.066406 697.324219 1593.570312 700.023438 C 1585.234375 705.097656 1577.699219 707.621094 1570.996094 707.621094 C 1567.15625 707.621094 1561.714844 706.597656 1554.609375 704.523438 C 1545.585938 701.359375 1533.554688 699.773438 1518.515625 699.773438 C 1504.539062 699.773438 1490.730469 701.871094 1477.152344 706.074219 C 1470.734375 708.148438 1465.351562 711.058594 1460.996094 714.824219 C 1456.699219 718.558594 1454.578125 722.808594 1454.578125 727.574219 C 1454.578125 732.308594 1456.699219 736.558594 1460.996094 740.324219 C 1465.351562 744.058594 1470.851562 746.996094 1477.496094 749.121094 C 1490.617188 753.261719 1504.308594 755.324219 1518.515625 755.324219 C 1525.164062 755.324219 1531.40625 754.960938 1537.308594 754.222656 C 1543.265625 753.460938 1547.507812 752.710938 1550.027344 751.972656 Z M 1550.027344 751.972656 "/>
<path style=" stroke:none;fill-rule:nonzero;fill:rgb(92.941176%,5.490196%,39.215686%);fill-opacity:1;" d="M 1731.574219 712.722656 C 1732.863281 707.460938 1741.34375 704.824219 1757.011719 704.824219 C 1765.40625 704.824219 1771.621094 705.109375 1775.6875 705.671875 C 1779.8125 706.246094 1782.679688 707.222656 1784.28125 708.621094 C 1785.886719 710.023438 1786.832031 711.273438 1787.148438 712.371094 C 1787.519531 713.449219 1787.71875 715.058594 1787.71875 717.222656 L 1787.71875 766.472656 C 1787.71875 768.609375 1787.519531 770.222656 1787.148438 771.324219 C 1786.832031 772.398438 1785.914062 773.621094 1784.398438 775.023438 C 1781.417969 777.460938 1774.027344 778.671875 1762.28125 778.671875 C 1750.59375 778.671875 1742.746094 778.046875 1738.792969 776.773438 C 1734.8125 775.511719 1732.519531 773.660156 1731.917969 771.222656 C 1723.953125 776.199219 1710.664062 778.671875 1692.042969 778.671875 C 1673.480469 778.671875 1656.207031 774.972656 1640.25 767.574219 C 1624.351562 760.171875 1616.417969 751.574219 1616.417969 741.773438 C 1616.417969 731.972656 1624.4375 723.398438 1640.480469 716.023438 C 1656.523438 708.660156 1674.082031 704.972656 1693.1875 704.972656 C 1700.523438 704.972656 1707.167969 705.546875 1713.125 706.671875 C 1719.140625 707.773438 1723.351562 708.824219 1725.730469 709.824219 C 1728.078125 710.796875 1730.027344 711.761719 1731.574219 712.722656 Z M 1672.90625 741.972656 C 1672.90625 745.074219 1675.6875 747.871094 1681.273438 750.371094 C 1686.828125 752.847656 1693.589844 754.074219 1701.554688 754.074219 C 1709.488281 754.074219 1716.105469 752.808594 1721.375 750.273438 C 1726.648438 747.746094 1729.28125 744.960938 1729.28125 741.921875 C 1729.28125 738.859375 1726.761719 736.011719 1721.71875 733.371094 C 1716.679688 730.746094 1709.917969 729.421875 1701.4375 729.421875 C 1692.960938 729.421875 1686.085938 730.746094 1680.8125 733.371094 C 1675.542969 736.011719 1672.90625 738.871094 1672.90625 741.972656 Z M 1672.90625 741.972656 "/>
<path style=" stroke:none;fill-rule:nonzero;fill:rgb(92.941176%,5.490196%,39.215686%);fill-opacity:1;" d="M 1928.875 705.671875 C 1932.914062 706.246094 1936.265625 707.210938 1938.957031 708.574219 C 1941.707031 709.910156 1943.082031 712.074219 1943.082031 715.074219 C 1943.082031 718.074219 1941.019531 721.359375 1936.894531 724.921875 C 1932.828125 728.496094 1926.953125 730.273438 1919.25 730.273438 C 1915.351562 730.273438 1911.601562 729.910156 1908.019531 729.171875 C 1904.496094 728.410156 1899.828125 728.023438 1894.039062 728.023438 C 1888.226562 728.023438 1882.8125 728.921875 1877.769531 730.722656 C 1872.726562 732.496094 1870.207031 734.648438 1870.207031 737.171875 L 1870.207031 766.722656 C 1870.207031 768.898438 1870.007812 770.523438 1869.632812 771.621094 C 1869.320312 772.699219 1868.316406 773.921875 1866.65625 775.324219 C 1863.445312 777.761719 1855.023438 778.972656 1841.445312 778.972656 C 1831.132812 778.972656 1823.714844 778.171875 1819.21875 776.574219 C 1815.78125 775.273438 1813.859375 773.261719 1813.488281 770.523438 C 1813.488281 769.597656 1813.488281 768.246094 1813.488281 766.472656 L 1813.488281 717.074219 C 1813.488281 714.910156 1813.632812 713.296875 1813.945312 712.222656 C 1814.234375 711.121094 1815.148438 709.921875 1816.695312 708.621094 C 1819.675781 706.097656 1828.039062 704.824219 1841.789062 704.824219 C 1854.679688 704.824219 1862.757812 705.910156 1865.96875 708.074219 C 1868.316406 709.574219 1869.519531 711.121094 1869.519531 712.722656 C 1870.578125 712.058594 1872.15625 711.261719 1874.21875 710.324219 C 1876.28125 709.398438 1880.632812 708.121094 1887.28125 706.523438 C 1893.925781 704.921875 1899.769531 704.121094 1904.8125 704.121094 C 1909.851562 704.121094 1914.09375 704.246094 1917.53125 704.472656 C 1921.023438 704.710938 1924.804688 705.109375 1928.875 705.671875 Z M 1928.875 705.671875 "/>
<path style=" stroke:none;fill-rule:nonzero;fill:rgb(92.941176%,5.490196%,39.215686%);fill-opacity:1;" d="M 2124.558594 733.023438 C 2124.558594 738.796875 2121.265625 743.058594 2114.707031 745.824219 C 2108.117188 748.597656 2100.871094 749.972656 2092.933594 749.972656 L 2016.507812 749.972656 C 2016.507812 752.609375 2020.058594 754.824219 2027.164062 756.621094 C 2034.269531 758.398438 2041.371094 759.273438 2048.476562 759.273438 C 2060.910156 759.273438 2070.707031 758.710938 2077.808594 757.574219 L 2081.363281 757.023438 C 2086.546875 755.996094 2090.871094 755.472656 2094.308594 755.472656 C 2101.183594 755.472656 2107.058594 757.597656 2111.957031 761.824219 C 2114.761719 764.359375 2116.195312 766.511719 2116.195312 768.273438 C 2116.195312 776.648438 2093.308594 780.824219 2047.558594 780.824219 C 2031.574219 780.824219 2017.425781 779.621094 2005.050781 777.222656 C 1992.730469 774.824219 1983.164062 771.660156 1976.289062 767.722656 C 1962.683594 760.121094 1955.894531 751.648438 1955.894531 742.273438 C 1955.894531 730.449219 1964.628906 720.996094 1982.132812 713.921875 C 1999.691406 706.824219 2021.578125 703.273438 2047.789062 703.273438 C 2077.636719 703.273438 2099.582031 707.871094 2113.558594 717.074219 C 2120.894531 721.949219 2124.558594 727.261719 2124.558594 733.023438 Z M 2056.496094 737.171875 C 2064.660156 737.171875 2068.757812 735.671875 2068.757812 732.671875 C 2068.757812 730.511719 2066.867188 728.773438 2063.144531 727.472656 C 2059.390625 726.171875 2054.003906 725.523438 2046.988281 725.523438 C 2040.027344 725.523438 2033.121094 726.773438 2026.246094 729.273438 C 2019.371094 731.746094 2015.933594 734.371094 2015.933594 737.171875 Z M 2056.496094 737.171875 "/>
</g>
</svg>
