<?xml version="1.0" encoding="UTF-8"?>
<svg xmlns="http://www.w3.org/2000/svg" xmlns:xlink="http://www.w3.org/1999/xlink" width="2750px" height="2750px" viewBox="0 0 2750 2750" version="1.1">
<defs>
<clipPath id="clip1">
  <path d="M 1066 902 L 1437.332031 902 L 1437.332031 1429 L 1066 1429 Z M 1066 902 "/>
</clipPath>
<clipPath id="clip2">
  <path d="M 1460 730.726562 L 1615 730.726562 L 1615 886 L 1460 886 Z M 1460 730.726562 "/>
</clipPath>
</defs>
<g id="surface1">
<path style=" stroke:none;fill-rule:nonzero;fill:rgb(0%,67.843137%,93.72549%);fill-opacity:1;" d="M 1106.386719 981.808594 C 1110.828125 953.847656 1122.171875 938.152344 1133.257812 929.328125 C 1139.703125 924.199219 1148.410156 931.417969 1144.714844 938.78125 C 1126.011719 976.050781 1136.78125 1025.148438 1156.976562 1071.324219 C 1134.433594 1043.023438 1115.210938 1012.171875 1106.386719 981.808594 "/>
<g clip-path="url(#clip1)" clip-rule="nonzero">
<path style=" stroke:none;fill-rule:nonzero;fill:rgb(0%,67.843137%,93.72549%);fill-opacity:1;" d="M 1386.542969 1190.261719 C 1358.558594 1164.625 1279.292969 1098.511719 1278.175781 1058.636719 C 1277.058594 1018.789062 1208.882812 1066.457031 1278.921875 1157.578125 C 1278.921875 1157.578125 1063.246094 1066.570312 1101.089844 910.566406 C 1103.265625 901.628906 1088.398438 898.992188 1084.816406 907.5 C 1069.40625 944.222656 1018.988281 1042.566406 1198.226562 1207.050781 C 1321.691406 1320.371094 1379.355469 1330.828125 1391.730469 1428.882812 C 1391.730469 1428.882812 1497.632812 1291.957031 1386.542969 1190.261719 "/>
</g>
<path style=" stroke:none;fill-rule:nonzero;fill:rgb(0%,67.843137%,93.72549%);fill-opacity:1;" d="M 1141.222656 982.464844 C 1140.992188 1009.652344 1149.816406 1039.730469 1162.675781 1068.976562 C 1154.714844 1033.597656 1154.742188 999.28125 1170.582031 972.667969 C 1174.792969 965.566406 1166.601562 957.773438 1159.8125 962.414062 C 1153.453125 966.769531 1146.921875 973.128906 1141.222656 982.464844 "/>
<path style=" stroke:none;fill-rule:nonzero;fill:rgb(92.941176%,5.490196%,39.215686%);fill-opacity:1;" d="M 1654.125 892.003906 C 1587.925781 849.320312 1490.785156 855.535156 1379.097656 909.246094 C 1297.828125 863.929688 1195.191406 866.535156 1195.191406 866.535156 C 1347.613281 915.464844 1379.613281 1001.199219 1379.613281 1001.199219 C 1460.335938 943.652344 1566.582031 934.054688 1609.722656 961.097656 C 1725.453125 1033.65625 1584.257812 1300.089844 1441.457031 1403.417969 C 1641.863281 1289.378906 1719.894531 1145.03125 1725.167969 1043.910156 C 1728.546875 978.683594 1702.652344 923.3125 1654.125 892.003906 "/>
<g clip-path="url(#clip2)" clip-rule="nonzero">
<path style=" stroke:none;fill-rule:nonzero;fill:rgb(92.941176%,5.490196%,39.215686%);fill-opacity:1;" d="M 1614.59375 808.183594 C 1614.59375 850.867188 1580.074219 885.472656 1537.449219 885.472656 C 1494.855469 885.472656 1460.335938 850.867188 1460.335938 808.183594 C 1460.335938 765.503906 1494.855469 730.898438 1537.449219 730.898438 C 1580.074219 730.898438 1614.59375 765.503906 1614.59375 808.183594 "/>
</g>
<path style=" stroke:none;fill-rule:nonzero;fill:rgb(0%,67.843137%,93.72549%);fill-opacity:1;" d="M 812.082031 1553.183594 C 824.742188 1559.371094 831.101562 1566.246094 831.101562 1573.808594 C 831.101562 1577.246094 829.496094 1582.402344 826.289062 1589.277344 L 737.257812 1769.863281 C 734.878906 1774.617188 731.242188 1778.425781 726.371094 1781.320312 C 721.558594 1784.242188 716.574219 1785.675781 711.476562 1785.675781 L 708.152344 1785.675781 C 702.796875 1785.675781 697.667969 1784.242188 692.800781 1781.320312 C 687.988281 1778.425781 684.378906 1774.617188 682.027344 1769.863281 L 592.996094 1589.277344 C 589.789062 1582.402344 588.183594 1577.246094 588.183594 1573.808594 C 588.183594 1566.246094 594.515625 1559.371094 607.207031 1553.183594 C 614.308594 1549.519531 619.722656 1547.683594 623.476562 1547.683594 C 627.285156 1547.683594 630.152344 1548.113281 632.070312 1548.945312 C 633.960938 1549.804688 635.792969 1551.292969 637.570312 1553.414062 C 639.460938 1556.019531 641.238281 1558.886719 642.839844 1562.007812 C 644.445312 1565.160156 648.570312 1574.097656 655.214844 1588.820312 C 661.917969 1603.488281 669.109375 1619.128906 676.757812 1635.683594 C 684.378906 1652.269531 691.566406 1667.941406 698.300781 1682.664062 C 705.089844 1697.417969 708.898438 1705.636719 709.757812 1707.300781 L 774.269531 1566.019531 C 776.015625 1561.980469 777.535156 1558.769531 778.851562 1556.394531 C 782.746094 1550.605469 787.472656 1547.683594 793.058594 1547.683594 C 798.617188 1547.683594 804.976562 1549.519531 812.082031 1553.183594 Z M 812.082031 1553.183594 "/>
<path style=" stroke:none;fill-rule:nonzero;fill:rgb(0%,67.843137%,93.72549%);fill-opacity:1;" d="M 848.769531 1644.394531 C 848.769531 1639.4375 848.914062 1635.742188 849.226562 1633.277344 C 849.515625 1630.84375 850.429688 1627.980469 851.976562 1624.683594 C 854.957031 1619.128906 863.320312 1616.320312 877.070312 1616.320312 C 887.382812 1616.320312 894.71875 1618.152344 899.070312 1621.820312 C 902.738281 1624.886719 904.628906 1629.496094 904.800781 1635.683594 C 905.03125 1637.832031 905.144531 1640.957031 905.144531 1645.082031 L 905.144531 1757.945312 C 905.144531 1762.929688 904.972656 1766.652344 904.6875 1769.175781 C 904.371094 1771.636719 903.339844 1774.445312 901.59375 1777.652344 C 898.84375 1783.238281 890.59375 1786.019531 876.84375 1786.019531 C 863.234375 1786.019531 854.957031 1783.125 851.976562 1777.308594 C 850.429688 1774.101562 849.515625 1771.324219 849.226562 1768.945312 C 848.914062 1766.597656 848.769531 1762.816406 848.769531 1757.601562 Z M 901.820312 1584.582031 C 900.21875 1587.730469 897.351562 1589.9375 893.226562 1591.226562 C 889.160156 1592.542969 883.746094 1593.175781 876.957031 1593.175781 C 870.140625 1593.175781 864.695312 1592.542969 860.570312 1591.226562 C 856.503906 1589.9375 853.695312 1587.675781 852.09375 1584.464844 C 850.488281 1581.199219 849.515625 1578.335938 849.226562 1575.871094 C 848.914062 1573.4375 848.769531 1569.742188 848.769531 1564.757812 C 848.769531 1559.800781 848.914062 1556.105469 849.226562 1553.644531 C 849.515625 1551.121094 850.429688 1548.371094 851.976562 1545.394531 C 854.957031 1539.605469 863.320312 1536.683594 877.070312 1536.683594 C 890.648438 1536.683594 898.84375 1539.605469 901.59375 1545.394531 C 903.339844 1548.601562 904.371094 1551.464844 904.6875 1553.988281 C 904.972656 1556.449219 905.144531 1560.144531 905.144531 1565.101562 C 905.144531 1570 904.972656 1573.695312 904.6875 1576.214844 C 904.371094 1578.679688 903.425781 1581.457031 901.820312 1584.582031 Z M 901.820312 1584.582031 "/>
<path style=" stroke:none;fill-rule:nonzero;fill:rgb(0%,67.843137%,93.72549%);fill-opacity:1;" d="M 1029.640625 1673.152344 L 1008.671875 1671.777344 L 1008.671875 1716.351562 C 1008.671875 1722.167969 1009.589844 1726.378906 1011.421875 1728.957031 C 1013.253906 1731.5625 1016.691406 1732.851562 1021.734375 1732.851562 C 1026.777344 1732.851562 1030.613281 1733.023438 1033.308594 1733.308594 C 1036.058594 1733.625 1038.921875 1734.628906 1041.902344 1736.289062 C 1046.855469 1739.125 1049.347656 1746.34375 1049.347656 1757.945312 C 1049.347656 1771.464844 1046.3125 1779.773438 1040.296875 1782.808594 C 1037.089844 1784.355469 1034.222656 1785.273438 1031.703125 1785.558594 C 1029.238281 1785.875 1025.660156 1786.019531 1020.933594 1786.019531 C 998.53125 1786.019531 981.542969 1780.976562 969.941406 1770.894531 C 958.3125 1760.753906 952.527344 1743.621094 952.527344 1719.558594 L 952.527344 1671.777344 C 948.457031 1672.464844 944.074219 1672.808594 939.347656 1672.808594 C 934.59375 1672.808594 930.667969 1670.976562 927.546875 1667.308594 C 924.394531 1663.644531 922.847656 1657.425781 922.847656 1648.632812 C 922.847656 1639.78125 923.363281 1633.363281 924.453125 1629.382812 C 925.511719 1625.429688 927.03125 1622.59375 929.035156 1620.902344 C 932.472656 1618.097656 936.742188 1616.664062 941.871094 1616.664062 L 952.527344 1617.925781 L 952.527344 1584.695312 C 952.527344 1579.824219 952.667969 1576.1875 952.984375 1573.808594 C 953.355469 1571.460938 954.386719 1568.855469 956.078125 1566.019531 C 958.886719 1560.691406 967.191406 1557.996094 980.941406 1557.996094 C 995.523438 1557.996094 1004.230469 1561.980469 1007.066406 1569.914062 C 1008.128906 1573.351562 1008.671875 1578.851562 1008.671875 1586.414062 L 1008.671875 1617.925781 C 1018.125 1617.09375 1025.285156 1616.664062 1030.097656 1616.664062 C 1034.96875 1616.664062 1038.636719 1616.863281 1041.097656 1617.238281 C 1043.535156 1617.550781 1046.398438 1618.554688 1049.691406 1620.214844 C 1055.25 1623.050781 1058.058594 1631.332031 1058.058594 1645.082031 C 1058.058594 1658.601562 1055.136719 1666.910156 1049.347656 1669.945312 C 1046.054688 1671.40625 1043.191406 1672.324219 1040.753906 1672.695312 C 1038.292969 1673.011719 1034.597656 1673.152344 1029.640625 1673.152344 Z M 1029.640625 1673.152344 "/>
<path style=" stroke:none;fill-rule:nonzero;fill:rgb(0%,67.843137%,93.72549%);fill-opacity:1;" d="M 1185.976562 1634.082031 C 1187.265625 1622.019531 1195.773438 1615.976562 1211.527344 1615.976562 C 1219.921875 1615.976562 1226.136719 1616.636719 1230.207031 1617.925781 C 1234.246094 1619.242188 1237.082031 1621.535156 1238.683594 1624.800781 C 1240.347656 1628.007812 1241.347656 1630.84375 1241.664062 1633.277344 C 1241.949219 1635.742188 1242.121094 1639.4375 1242.121094 1644.394531 L 1242.121094 1757.257812 C 1242.121094 1762.242188 1241.949219 1765.964844 1241.664062 1768.488281 C 1241.347656 1770.949219 1240.433594 1773.757812 1238.914062 1776.964844 C 1235.933594 1782.550781 1228.542969 1785.332031 1216.800781 1785.332031 C 1205.113281 1785.332031 1197.261719 1783.898438 1193.308594 1780.976562 C 1189.328125 1778.082031 1187.007812 1773.84375 1186.320312 1768.257812 C 1178.355469 1779.660156 1165.066406 1785.332031 1146.445312 1785.332031 C 1127.882812 1785.332031 1110.609375 1776.851562 1094.652344 1759.894531 C 1078.753906 1742.933594 1070.820312 1723.226562 1070.820312 1700.769531 C 1070.820312 1678.253906 1078.839844 1658.542969 1094.882812 1641.644531 C 1110.925781 1624.769531 1128.484375 1616.320312 1147.589844 1616.320312 C 1154.925781 1616.320312 1161.597656 1617.636719 1167.644531 1620.214844 C 1173.660156 1622.824219 1177.871094 1625.257812 1180.246094 1627.550781 C 1182.597656 1629.785156 1184.515625 1631.960938 1185.976562 1634.082031 Z M 1127.308594 1701.226562 C 1127.308594 1708.332031 1130.089844 1714.746094 1135.675781 1720.476562 C 1141.230469 1726.148438 1147.992188 1728.957031 1155.957031 1728.957031 C 1163.976562 1728.957031 1170.621094 1726.0625 1175.894531 1720.246094 C 1181.164062 1714.460938 1183.800781 1708.074219 1183.800781 1701.113281 C 1183.800781 1694.09375 1181.222656 1687.5625 1176.121094 1681.519531 C 1171.082031 1675.503906 1164.320312 1672.464844 1155.839844 1672.464844 C 1147.363281 1672.464844 1140.488281 1675.503906 1135.214844 1681.519531 C 1129.945312 1687.5625 1127.308594 1694.121094 1127.308594 1701.226562 Z M 1127.308594 1701.226562 "/>
<path style=" stroke:none;fill-rule:nonzero;fill:rgb(0%,67.843137%,93.72549%);fill-opacity:1;" d="M 1267.902344 1564.414062 C 1267.902344 1559.457031 1268.046875 1555.761719 1268.363281 1553.300781 C 1268.648438 1550.863281 1269.566406 1548 1271.113281 1544.707031 C 1274.089844 1538.917969 1282.457031 1535.996094 1296.207031 1535.996094 C 1309.324219 1535.996094 1317.519531 1538.917969 1320.726562 1544.707031 C 1322.472656 1548 1323.503906 1550.949219 1323.820312 1553.527344 C 1324.105469 1556.050781 1324.277344 1559.800781 1324.277344 1564.757812 L 1324.277344 1714.058594 C 1324.277344 1721.851562 1324.910156 1726.777344 1326.226562 1728.839844 C 1327.515625 1730.847656 1330.351562 1731.820312 1334.707031 1731.820312 C 1339.117188 1731.820312 1342.097656 1732.019531 1343.644531 1732.394531 C 1345.160156 1732.707031 1346.996094 1733.597656 1349.144531 1735.027344 C 1353.410156 1737.863281 1355.558594 1745.511719 1355.558594 1757.945312 C 1355.558594 1771.464844 1353.410156 1779.773438 1349.144531 1782.808594 C 1343.558594 1786.707031 1330.238281 1787.335938 1309.152344 1784.757812 C 1292.566406 1782.636719 1281.796875 1777.136719 1276.839844 1768.257812 C 1270.882812 1757.714844 1267.902344 1740.957031 1267.902344 1717.957031 Z M 1267.902344 1564.414062 "/>
<path style=" stroke:none;fill-rule:nonzero;fill:rgb(92.941176%,5.490196%,39.215686%);fill-opacity:1;" d="M 1550.027344 1723.269531 L 1555.871094 1719.03125 C 1563.203125 1714.761719 1568.359375 1712.613281 1571.339844 1712.613281 C 1577.984375 1712.613281 1585.203125 1718.628906 1592.996094 1730.605469 C 1597.722656 1738.167969 1600.101562 1744.210938 1600.101562 1748.707031 C 1600.101562 1753.234375 1598.640625 1757.015625 1595.746094 1760.050781 C 1592.824219 1763.03125 1589.445312 1765.722656 1585.546875 1768.074219 C 1581.652344 1770.449219 1577.898438 1772.714844 1574.320312 1774.832031 C 1570.796875 1776.980469 1563.546875 1779.761719 1552.546875 1783.199219 C 1541.605469 1786.636719 1531.035156 1788.355469 1520.808594 1788.355469 C 1510.640625 1788.355469 1500.328125 1787.007812 1489.871094 1784.34375 C 1479.472656 1781.679688 1468.730469 1777.183594 1457.671875 1770.824219 C 1446.585938 1764.492188 1436.617188 1756.785156 1427.765625 1747.675781 C 1418.972656 1738.511719 1411.726562 1726.792969 1405.996094 1712.5 C 1400.324219 1698.148438 1397.515625 1682.59375 1397.515625 1665.863281 C 1397.515625 1649.078125 1400.296875 1633.867188 1405.882812 1620.261719 C 1411.523438 1606.597656 1418.714844 1595.28125 1427.421875 1586.34375 C 1436.132812 1577.40625 1446.042969 1569.957031 1457.214844 1564 C 1478.296875 1552.398438 1499.4375 1546.582031 1520.695312 1546.582031 C 1530.835938 1546.582031 1541.117188 1548.160156 1551.515625 1551.28125 C 1561.972656 1554.347656 1569.878906 1557.46875 1575.234375 1560.675781 L 1582.914062 1565.261719 C 1586.808594 1567.636719 1589.816406 1569.585938 1591.964844 1571.105469 C 1597.523438 1575.628906 1600.328125 1580.730469 1600.328125 1586.457031 C 1600.328125 1592.128906 1598.066406 1598.03125 1593.570312 1604.21875 C 1585.234375 1615.847656 1577.699219 1621.636719 1570.996094 1621.636719 C 1567.15625 1621.636719 1561.714844 1619.285156 1554.609375 1614.53125 C 1545.585938 1607.285156 1533.554688 1603.644531 1518.515625 1603.644531 C 1504.539062 1603.644531 1490.730469 1608.457031 1477.152344 1618.082031 C 1470.734375 1622.839844 1465.351562 1629.511719 1460.996094 1638.136719 C 1456.699219 1646.699219 1454.578125 1656.441406 1454.578125 1667.355469 C 1454.578125 1678.210938 1456.699219 1687.949219 1460.996094 1696.574219 C 1465.351562 1705.136719 1470.851562 1711.871094 1477.496094 1716.738281 C 1490.617188 1726.222656 1504.308594 1730.949219 1518.515625 1730.949219 C 1525.164062 1730.949219 1531.40625 1730.117188 1537.308594 1728.425781 C 1543.265625 1726.679688 1547.507812 1724.960938 1550.027344 1723.269531 Z M 1550.027344 1723.269531 "/>
<path style=" stroke:none;fill-rule:nonzero;fill:rgb(92.941176%,5.490196%,39.215686%);fill-opacity:1;" d="M 1731.574219 1633.324219 C 1732.863281 1621.261719 1741.34375 1615.21875 1757.011719 1615.21875 C 1765.40625 1615.21875 1771.621094 1615.878906 1775.6875 1617.167969 C 1779.8125 1618.484375 1782.679688 1620.71875 1784.28125 1623.925781 C 1785.886719 1627.136719 1786.832031 1630 1787.148438 1632.519531 C 1787.519531 1634.984375 1787.71875 1638.679688 1787.71875 1643.636719 L 1787.71875 1756.5 C 1787.71875 1761.398438 1787.519531 1765.09375 1787.148438 1767.613281 C 1786.832031 1770.078125 1785.914062 1772.886719 1784.398438 1776.09375 C 1781.417969 1781.679688 1774.027344 1784.457031 1762.28125 1784.457031 C 1750.59375 1784.457031 1742.746094 1783.027344 1738.792969 1780.105469 C 1734.8125 1777.210938 1732.519531 1772.972656 1731.917969 1767.386719 C 1723.953125 1778.785156 1710.664062 1784.457031 1692.042969 1784.457031 C 1673.480469 1784.457031 1656.207031 1775.980469 1640.25 1759.019531 C 1624.351562 1742.0625 1616.417969 1722.355469 1616.417969 1699.894531 C 1616.417969 1677.4375 1624.4375 1657.785156 1640.480469 1640.886719 C 1656.523438 1624.011719 1674.082031 1615.5625 1693.1875 1615.5625 C 1700.523438 1615.5625 1707.167969 1616.878906 1713.125 1619.457031 C 1719.140625 1621.980469 1723.351562 1624.386719 1725.730469 1626.675781 C 1728.078125 1628.910156 1730.027344 1631.117188 1731.574219 1633.324219 Z M 1672.90625 1700.355469 C 1672.90625 1707.457031 1675.6875 1713.875 1681.273438 1719.605469 C 1686.828125 1725.277344 1693.589844 1728.082031 1701.554688 1728.082031 C 1709.488281 1728.082031 1716.105469 1725.191406 1721.375 1719.375 C 1726.648438 1713.589844 1729.28125 1707.199219 1729.28125 1700.238281 C 1729.28125 1693.222656 1726.761719 1686.691406 1721.71875 1680.644531 C 1716.679688 1674.628906 1709.917969 1671.59375 1701.4375 1671.59375 C 1692.960938 1671.59375 1686.085938 1674.628906 1680.8125 1680.644531 C 1675.542969 1686.691406 1672.90625 1693.25 1672.90625 1700.355469 Z M 1672.90625 1700.355469 "/>
<path style=" stroke:none;fill-rule:nonzero;fill:rgb(92.941176%,5.490196%,39.215686%);fill-opacity:1;" d="M 1928.875 1617.167969 C 1932.914062 1618.484375 1936.265625 1620.691406 1938.957031 1623.8125 C 1941.707031 1626.878906 1943.082031 1631.832031 1943.082031 1638.707031 C 1943.082031 1645.582031 1941.019531 1653.117188 1936.894531 1661.28125 C 1932.828125 1669.472656 1926.953125 1673.542969 1919.25 1673.542969 C 1915.351562 1673.542969 1911.601562 1672.710938 1908.019531 1671.019531 C 1904.496094 1669.273438 1899.828125 1668.386719 1894.039062 1668.386719 C 1888.226562 1668.386719 1882.8125 1670.449219 1877.769531 1674.574219 C 1872.726562 1678.640625 1870.207031 1683.566406 1870.207031 1689.355469 L 1870.207031 1757.074219 C 1870.207031 1762.058594 1870.007812 1765.78125 1869.632812 1768.300781 C 1869.320312 1770.765625 1868.316406 1773.574219 1866.65625 1776.78125 C 1863.445312 1782.367188 1855.023438 1785.144531 1841.445312 1785.144531 C 1831.132812 1785.144531 1823.714844 1783.3125 1819.21875 1779.644531 C 1815.78125 1776.667969 1813.859375 1772.054688 1813.488281 1765.78125 C 1813.488281 1763.660156 1813.488281 1760.566406 1813.488281 1756.5 L 1813.488281 1643.292969 C 1813.488281 1638.335938 1813.632812 1634.640625 1813.945312 1632.175781 C 1814.234375 1629.65625 1815.148438 1626.90625 1816.695312 1623.925781 C 1819.675781 1618.140625 1828.039062 1615.21875 1841.789062 1615.21875 C 1854.679688 1615.21875 1862.757812 1617.710938 1865.96875 1622.667969 C 1868.316406 1626.105469 1869.519531 1629.65625 1869.519531 1633.324219 C 1870.578125 1631.804688 1872.15625 1629.972656 1874.21875 1627.824219 C 1876.28125 1625.703125 1880.632812 1622.78125 1887.28125 1619.113281 C 1893.925781 1615.449219 1899.769531 1613.613281 1904.8125 1613.613281 C 1909.851562 1613.613281 1914.09375 1613.902344 1917.53125 1614.417969 C 1921.023438 1614.960938 1924.804688 1615.878906 1928.875 1617.167969 Z M 1928.875 1617.167969 "/>
<path style=" stroke:none;fill-rule:nonzero;fill:rgb(92.941176%,5.490196%,39.215686%);fill-opacity:1;" d="M 2124.558594 1679.84375 C 2124.558594 1693.078125 2121.265625 1702.847656 2114.707031 1709.175781 C 2108.117188 1715.535156 2100.871094 1718.6875 2092.933594 1718.6875 L 2016.507812 1718.6875 C 2016.507812 1724.730469 2020.058594 1729.800781 2027.164062 1733.925781 C 2034.269531 1737.996094 2041.371094 1740 2048.476562 1740 C 2060.910156 1740 2070.707031 1738.710938 2077.808594 1736.105469 L 2081.363281 1734.84375 C 2086.546875 1732.496094 2090.871094 1731.292969 2094.308594 1731.292969 C 2101.183594 1731.292969 2107.058594 1736.160156 2111.957031 1745.84375 C 2114.761719 1751.660156 2116.195312 1756.585938 2116.195312 1760.625 C 2116.195312 1779.816406 2093.308594 1789.386719 2047.558594 1789.386719 C 2031.574219 1789.386719 2017.425781 1786.636719 2005.050781 1781.136719 C 1992.730469 1775.636719 1983.164062 1768.386719 1976.289062 1759.363281 C 1962.683594 1741.949219 1955.894531 1722.527344 1955.894531 1701.042969 C 1955.894531 1673.941406 1964.628906 1652.285156 1982.132812 1636.074219 C 1999.691406 1619.800781 2021.578125 1611.667969 2047.789062 1611.667969 C 2077.636719 1611.667969 2099.582031 1622.207031 2113.558594 1643.292969 C 2120.894531 1654.464844 2124.558594 1666.636719 2124.558594 1679.84375 Z M 2056.496094 1689.355469 C 2064.660156 1689.355469 2068.757812 1685.917969 2068.757812 1679.042969 C 2068.757812 1674.085938 2066.867188 1670.105469 2063.144531 1667.125 C 2059.390625 1664.144531 2054.003906 1662.65625 2046.988281 1662.65625 C 2040.027344 1662.65625 2033.121094 1665.519531 2026.246094 1671.25 C 2019.371094 1676.921875 2015.933594 1682.9375 2015.933594 1689.355469 Z M 2056.496094 1689.355469 "/>
</g>
</svg>
