<svg xmlns="http://www.w3.org/2000/svg" xmlns:xlink="http://www.w3.org/1999/xlink" width="500" zoomAndPan="magnify" viewBox="0 0 375 374.999991" height="500" preserveAspectRatio="xMidYMid meet" version="1.0"><defs><g/><clipPath id="ee4072fd98"><path d="M 145 123 L 196 123 L 196 194.894531 L 145 194.894531 Z M 145 123 " clip-rule="nonzero"/></clipPath><clipPath id="3d44a41831"><path d="M 162 117 L 235.710938 117 L 235.710938 192 L 162 192 Z M 162 117 " clip-rule="nonzero"/></clipPath><clipPath id="f76219df02"><path d="M 199 99.644531 L 221 99.644531 L 221 121 L 199 121 Z M 199 99.644531 " clip-rule="nonzero"/></clipPath></defs><path fill="#00adef" d="M 150.871094 133.882812 C 151.476562 130.070312 153.023438 127.929688 154.535156 126.726562 C 155.414062 126.027344 156.601562 127.011719 156.097656 128.015625 C 153.546875 133.097656 155.015625 139.792969 157.769531 146.089844 C 154.695312 142.230469 152.074219 138.023438 150.871094 133.882812 " fill-opacity="1" fill-rule="nonzero"/><g clip-path="url(#ee4072fd98)"><path fill="#00adef" d="M 189.074219 162.308594 C 185.257812 158.8125 174.449219 149.796875 174.296875 144.359375 C 174.144531 138.925781 164.847656 145.425781 174.398438 157.851562 C 174.398438 157.851562 144.988281 145.441406 150.148438 124.167969 C 150.445312 122.949219 148.417969 122.589844 147.929688 123.75 C 145.828125 128.757812 138.953125 142.167969 163.394531 164.597656 C 180.230469 180.050781 188.09375 181.476562 189.78125 194.847656 C 189.78125 194.847656 204.222656 176.175781 189.074219 162.308594 " fill-opacity="1" fill-rule="nonzero"/></g><path fill="#00adef" d="M 155.621094 133.972656 C 155.589844 137.679688 156.792969 141.78125 158.546875 145.769531 C 157.460938 140.945312 157.464844 136.265625 159.625 132.636719 C 160.199219 131.667969 159.082031 130.605469 158.15625 131.238281 C 157.289062 131.832031 156.398438 132.699219 155.621094 133.972656 " fill-opacity="1" fill-rule="nonzero"/><g clip-path="url(#3d44a41831)"><path fill="#ed0e64" d="M 225.5625 121.636719 C 216.535156 115.816406 203.289062 116.664062 188.058594 123.988281 C 176.976562 117.808594 162.980469 118.164062 162.980469 118.164062 C 183.765625 124.835938 188.128906 136.527344 188.128906 136.527344 C 199.136719 128.679688 213.625 127.371094 219.507812 131.058594 C 235.289062 140.953125 216.035156 177.285156 196.5625 191.375 C 223.890625 175.824219 234.53125 156.140625 235.25 142.351562 C 235.710938 133.457031 232.179688 125.90625 225.5625 121.636719 " fill-opacity="1" fill-rule="nonzero"/></g><g clip-path="url(#f76219df02)"><path fill="#ed0e64" d="M 220.171875 110.207031 C 220.171875 116.027344 215.464844 120.746094 209.652344 120.746094 C 203.84375 120.746094 199.136719 116.027344 199.136719 110.207031 C 199.136719 104.386719 203.84375 99.667969 209.652344 99.667969 C 215.464844 99.667969 220.171875 104.386719 220.171875 110.207031 " fill-opacity="1" fill-rule="nonzero"/></g><g fill="#00adef" fill-opacity="1"><g transform="translate(79.550856, 243.547887)"><g><path d="M 31.1875 -31.75 C 32.914062 -30.90625 33.78125 -29.96875 33.78125 -28.9375 C 33.78125 -28.46875 33.5625 -27.765625 33.125 -26.828125 L 20.984375 -2.203125 C 20.660156 -1.554688 20.164062 -1.035156 19.5 -0.640625 C 18.84375 -0.242188 18.164062 -0.046875 17.46875 -0.046875 L 17.015625 -0.046875 C 16.285156 -0.046875 15.585938 -0.242188 14.921875 -0.640625 C 14.265625 -1.035156 13.773438 -1.554688 13.453125 -2.203125 L 1.3125 -26.828125 C 0.875 -27.765625 0.65625 -28.46875 0.65625 -28.9375 C 0.65625 -29.96875 1.519531 -30.90625 3.25 -31.75 C 4.21875 -32.25 4.957031 -32.5 5.46875 -32.5 C 5.988281 -32.5 6.378906 -32.441406 6.640625 -32.328125 C 6.898438 -32.210938 7.148438 -32.007812 7.390625 -31.71875 C 7.648438 -31.363281 7.890625 -30.972656 8.109375 -30.546875 C 8.328125 -30.117188 8.890625 -28.898438 9.796875 -26.890625 C 10.710938 -24.890625 11.691406 -22.757812 12.734375 -20.5 C 13.773438 -18.238281 14.753906 -16.101562 15.671875 -14.09375 C 16.597656 -12.082031 17.117188 -10.960938 17.234375 -10.734375 L 26.03125 -30 C 26.269531 -30.550781 26.476562 -30.988281 26.65625 -31.3125 C 27.1875 -32.101562 27.832031 -32.5 28.59375 -32.5 C 29.351562 -32.5 30.21875 -32.25 31.1875 -31.75 Z M 31.1875 -31.75 "/></g></g></g><g fill="#00adef" fill-opacity="1"><g transform="translate(113.975616, 243.547887)"><g><path d="M 1.765625 -19.3125 C 1.765625 -19.988281 1.785156 -20.492188 1.828125 -20.828125 C 1.867188 -21.160156 1.992188 -21.550781 2.203125 -22 C 2.609375 -22.757812 3.75 -23.140625 5.625 -23.140625 C 7.03125 -23.140625 8.03125 -22.890625 8.625 -22.390625 C 9.125 -21.972656 9.382812 -21.34375 9.40625 -20.5 C 9.4375 -20.207031 9.453125 -19.78125 9.453125 -19.21875 L 9.453125 -3.828125 C 9.453125 -3.148438 9.429688 -2.640625 9.390625 -2.296875 C 9.347656 -1.960938 9.207031 -1.578125 8.96875 -1.140625 C 8.59375 -0.378906 7.46875 0 5.59375 0 C 3.738281 0 2.609375 -0.394531 2.203125 -1.1875 C 1.992188 -1.625 1.867188 -2.003906 1.828125 -2.328125 C 1.785156 -2.648438 1.765625 -3.164062 1.765625 -3.875 Z M 9 -27.46875 C 8.78125 -27.039062 8.390625 -26.738281 7.828125 -26.5625 C 7.273438 -26.382812 6.535156 -26.296875 5.609375 -26.296875 C 4.679688 -26.296875 3.9375 -26.382812 3.375 -26.5625 C 2.820312 -26.738281 2.4375 -27.046875 2.21875 -27.484375 C 2 -27.929688 1.867188 -28.320312 1.828125 -28.65625 C 1.785156 -28.988281 1.765625 -29.492188 1.765625 -30.171875 C 1.765625 -30.847656 1.785156 -31.351562 1.828125 -31.6875 C 1.867188 -32.03125 1.992188 -32.40625 2.203125 -32.8125 C 2.609375 -33.601562 3.75 -34 5.625 -34 C 7.476562 -34 8.59375 -33.601562 8.96875 -32.8125 C 9.207031 -32.375 9.347656 -31.984375 9.390625 -31.640625 C 9.429688 -31.304688 9.453125 -30.800781 9.453125 -30.125 C 9.453125 -29.457031 9.429688 -28.953125 9.390625 -28.609375 C 9.347656 -28.273438 9.21875 -27.894531 9 -27.46875 Z M 9 -27.46875 "/></g></g></g><g fill="#00adef" fill-opacity="1"><g transform="translate(125.186747, 243.547887)"><g><path d="M 15.21875 -15.390625 L 12.359375 -15.578125 L 12.359375 -9.5 C 12.359375 -8.707031 12.484375 -8.132812 12.734375 -7.78125 C 12.984375 -7.425781 13.453125 -7.25 14.140625 -7.25 C 14.828125 -7.25 15.351562 -7.226562 15.71875 -7.1875 C 16.09375 -7.144531 16.484375 -7.007812 16.890625 -6.78125 C 17.566406 -6.394531 17.90625 -5.410156 17.90625 -3.828125 C 17.90625 -1.984375 17.492188 -0.851562 16.671875 -0.4375 C 16.234375 -0.226562 15.84375 -0.101562 15.5 -0.0625 C 15.164062 -0.0195312 14.675781 0 14.03125 0 C 10.976562 0 8.660156 -0.6875 7.078125 -2.0625 C 5.492188 -3.445312 4.703125 -5.78125 4.703125 -9.0625 L 4.703125 -15.578125 C 4.148438 -15.484375 3.550781 -15.4375 2.90625 -15.4375 C 2.257812 -15.4375 1.722656 -15.6875 1.296875 -16.1875 C 0.867188 -16.6875 0.65625 -17.535156 0.65625 -18.734375 C 0.65625 -19.941406 0.726562 -20.816406 0.875 -21.359375 C 1.019531 -21.898438 1.226562 -22.285156 1.5 -22.515625 C 1.96875 -22.898438 2.550781 -23.09375 3.25 -23.09375 L 4.703125 -22.921875 L 4.703125 -27.453125 C 4.703125 -28.117188 4.722656 -28.613281 4.765625 -28.9375 C 4.816406 -29.257812 4.957031 -29.613281 5.1875 -30 C 5.570312 -30.726562 6.703125 -31.09375 8.578125 -31.09375 C 10.566406 -31.09375 11.753906 -30.550781 12.140625 -29.46875 C 12.285156 -29 12.359375 -28.25 12.359375 -27.21875 L 12.359375 -22.921875 C 13.648438 -23.035156 14.625 -23.09375 15.28125 -23.09375 C 15.945312 -23.09375 16.445312 -23.066406 16.78125 -23.015625 C 17.113281 -22.972656 17.503906 -22.835938 17.953125 -22.609375 C 18.710938 -22.222656 19.09375 -21.09375 19.09375 -19.21875 C 19.09375 -17.375 18.695312 -16.242188 17.90625 -15.828125 C 17.457031 -15.628906 17.066406 -15.503906 16.734375 -15.453125 C 16.398438 -15.410156 15.894531 -15.390625 15.21875 -15.390625 Z M 15.21875 -15.390625 "/></g></g></g><g fill="#00adef" fill-opacity="1"><g transform="translate(144.927126, 243.547887)"><g><path d="M 16.796875 -20.71875 C 16.972656 -22.363281 18.132812 -23.1875 20.28125 -23.1875 C 21.425781 -23.1875 22.273438 -23.097656 22.828125 -22.921875 C 23.378906 -22.742188 23.765625 -22.429688 23.984375 -21.984375 C 24.210938 -21.546875 24.347656 -21.160156 24.390625 -20.828125 C 24.429688 -20.492188 24.453125 -19.988281 24.453125 -19.3125 L 24.453125 -3.921875 C 24.453125 -3.242188 24.429688 -2.734375 24.390625 -2.390625 C 24.347656 -2.054688 24.222656 -1.671875 24.015625 -1.234375 C 23.609375 -0.472656 22.601562 -0.09375 21 -0.09375 C 19.40625 -0.09375 18.335938 -0.289062 17.796875 -0.6875 C 17.253906 -1.082031 16.9375 -1.660156 16.84375 -2.421875 C 15.757812 -0.867188 13.945312 -0.09375 11.40625 -0.09375 C 8.875 -0.09375 6.519531 -1.25 4.34375 -3.5625 C 2.175781 -5.875 1.09375 -8.5625 1.09375 -11.625 C 1.09375 -14.695312 2.1875 -17.382812 4.375 -19.6875 C 6.5625 -21.988281 8.957031 -23.140625 11.5625 -23.140625 C 12.5625 -23.140625 13.472656 -22.960938 14.296875 -22.609375 C 15.117188 -22.253906 15.691406 -21.921875 16.015625 -21.609375 C 16.335938 -21.304688 16.597656 -21.007812 16.796875 -20.71875 Z M 8.796875 -11.5625 C 8.796875 -10.59375 9.175781 -9.71875 9.9375 -8.9375 C 10.695312 -8.164062 11.617188 -7.78125 12.703125 -7.78125 C 13.796875 -7.78125 14.703125 -8.175781 15.421875 -8.96875 C 16.140625 -9.757812 16.5 -10.628906 16.5 -11.578125 C 16.5 -12.535156 16.148438 -13.425781 15.453125 -14.25 C 14.765625 -15.070312 13.84375 -15.484375 12.6875 -15.484375 C 11.53125 -15.484375 10.59375 -15.070312 9.875 -14.25 C 9.15625 -13.425781 8.796875 -12.53125 8.796875 -11.5625 Z M 8.796875 -11.5625 "/></g></g></g><g fill="#00adef" fill-opacity="1"><g transform="translate(171.130399, 243.547887)"><g><path d="M 1.765625 -30.21875 C 1.765625 -30.894531 1.785156 -31.398438 1.828125 -31.734375 C 1.867188 -32.066406 1.992188 -32.457031 2.203125 -32.90625 C 2.609375 -33.695312 3.75 -34.09375 5.625 -34.09375 C 7.414062 -34.09375 8.53125 -33.695312 8.96875 -32.90625 C 9.207031 -32.457031 9.347656 -32.054688 9.390625 -31.703125 C 9.429688 -31.359375 9.453125 -30.847656 9.453125 -30.171875 L 9.453125 -9.8125 C 9.453125 -8.75 9.539062 -8.078125 9.71875 -7.796875 C 9.894531 -7.523438 10.28125 -7.390625 10.875 -7.390625 C 11.476562 -7.390625 11.882812 -7.363281 12.09375 -7.3125 C 12.300781 -7.269531 12.550781 -7.148438 12.84375 -6.953125 C 13.425781 -6.566406 13.71875 -5.523438 13.71875 -3.828125 C 13.71875 -1.984375 13.425781 -0.851562 12.84375 -0.4375 C 12.082031 0.09375 10.265625 0.179688 7.390625 -0.171875 C 5.128906 -0.460938 3.660156 -1.210938 2.984375 -2.421875 C 2.171875 -3.859375 1.765625 -6.144531 1.765625 -9.28125 Z M 1.765625 -30.21875 "/></g></g></g><g fill="#ed0e64" fill-opacity="1"><g transform="translate(189.476668, 243.428956)"><g><path d="M 21.890625 -8.4375 L 22.6875 -9.015625 C 23.6875 -9.597656 24.390625 -9.890625 24.796875 -9.890625 C 25.703125 -9.890625 26.6875 -9.070312 27.75 -7.4375 C 28.394531 -6.40625 28.71875 -5.582031 28.71875 -4.96875 C 28.71875 -4.351562 28.519531 -3.835938 28.125 -3.421875 C 27.726562 -3.015625 27.265625 -2.648438 26.734375 -2.328125 C 26.203125 -2.003906 25.691406 -1.695312 25.203125 -1.40625 C 24.722656 -1.113281 23.734375 -0.734375 22.234375 -0.265625 C 20.742188 0.203125 19.300781 0.4375 17.90625 0.4375 C 16.519531 0.4375 15.113281 0.253906 13.6875 -0.109375 C 12.269531 -0.472656 10.804688 -1.085938 9.296875 -1.953125 C 7.785156 -2.816406 6.425781 -3.867188 5.21875 -5.109375 C 4.019531 -6.359375 3.03125 -7.957031 2.25 -9.90625 C 1.476562 -11.863281 1.09375 -13.984375 1.09375 -16.265625 C 1.09375 -18.554688 1.472656 -20.628906 2.234375 -22.484375 C 3.003906 -24.347656 3.984375 -25.890625 5.171875 -27.109375 C 6.359375 -28.328125 7.710938 -29.34375 9.234375 -30.15625 C 12.109375 -31.738281 14.992188 -32.53125 17.890625 -32.53125 C 19.273438 -32.53125 20.675781 -32.316406 22.09375 -31.890625 C 23.519531 -31.472656 24.597656 -31.046875 25.328125 -30.609375 L 26.375 -29.984375 C 26.90625 -29.660156 27.316406 -29.394531 27.609375 -29.1875 C 28.367188 -28.570312 28.75 -27.875 28.75 -27.09375 C 28.75 -26.320312 28.441406 -25.515625 27.828125 -24.671875 C 26.691406 -23.085938 25.664062 -22.296875 24.75 -22.296875 C 24.226562 -22.296875 23.484375 -22.617188 22.515625 -23.265625 C 21.285156 -24.253906 19.644531 -24.75 17.59375 -24.75 C 15.6875 -24.75 13.804688 -24.09375 11.953125 -22.78125 C 11.078125 -22.132812 10.34375 -21.222656 9.75 -20.046875 C 9.164062 -18.878906 8.875 -17.550781 8.875 -16.0625 C 8.875 -14.582031 9.164062 -13.253906 9.75 -12.078125 C 10.34375 -10.910156 11.09375 -9.992188 12 -9.328125 C 13.789062 -8.035156 15.65625 -7.390625 17.59375 -7.390625 C 18.5 -7.390625 19.351562 -7.503906 20.15625 -7.734375 C 20.96875 -7.972656 21.546875 -8.207031 21.890625 -8.4375 Z M 21.890625 -8.4375 "/></g></g></g><g fill="#ed0e64" fill-opacity="1"><g transform="translate(219.326901, 243.428956)"><g><path d="M 16.796875 -20.703125 C 16.972656 -22.347656 18.128906 -23.171875 20.265625 -23.171875 C 21.410156 -23.171875 22.257812 -23.082031 22.8125 -22.90625 C 23.375 -22.726562 23.765625 -22.421875 23.984375 -21.984375 C 24.203125 -21.546875 24.332031 -21.15625 24.375 -20.8125 C 24.425781 -20.476562 24.453125 -19.972656 24.453125 -19.296875 L 24.453125 -3.90625 C 24.453125 -3.238281 24.425781 -2.734375 24.375 -2.390625 C 24.332031 -2.054688 24.207031 -1.671875 24 -1.234375 C 23.59375 -0.472656 22.585938 -0.09375 20.984375 -0.09375 C 19.390625 -0.09375 18.320312 -0.289062 17.78125 -0.6875 C 17.238281 -1.082031 16.925781 -1.660156 16.84375 -2.421875 C 15.757812 -0.867188 13.945312 -0.09375 11.40625 -0.09375 C 8.875 -0.09375 6.519531 -1.25 4.34375 -3.5625 C 2.175781 -5.875 1.09375 -8.5625 1.09375 -11.625 C 1.09375 -14.6875 2.1875 -17.367188 4.375 -19.671875 C 6.5625 -21.972656 8.957031 -23.125 11.5625 -23.125 C 12.5625 -23.125 13.46875 -22.945312 14.28125 -22.59375 C 15.101562 -22.25 15.675781 -21.921875 16 -21.609375 C 16.320312 -21.304688 16.585938 -21.003906 16.796875 -20.703125 Z M 8.796875 -11.5625 C 8.796875 -10.59375 9.175781 -9.71875 9.9375 -8.9375 C 10.695312 -8.164062 11.617188 -7.78125 12.703125 -7.78125 C 13.785156 -7.78125 14.6875 -8.175781 15.40625 -8.96875 C 16.125 -9.757812 16.484375 -10.628906 16.484375 -11.578125 C 16.484375 -12.535156 16.140625 -13.425781 15.453125 -14.25 C 14.765625 -15.070312 13.84375 -15.484375 12.6875 -15.484375 C 11.53125 -15.484375 10.59375 -15.070312 9.875 -14.25 C 9.15625 -13.425781 8.796875 -12.53125 8.796875 -11.5625 Z M 8.796875 -11.5625 "/></g></g></g><g fill="#ed0e64" fill-opacity="1"><g transform="translate(245.528286, 243.428956)"><g><path d="M 17.5 -22.90625 C 18.050781 -22.726562 18.507812 -22.425781 18.875 -22 C 19.25 -21.582031 19.4375 -20.90625 19.4375 -19.96875 C 19.4375 -19.03125 19.15625 -18.003906 18.59375 -16.890625 C 18.039062 -15.773438 17.238281 -15.21875 16.1875 -15.21875 C 15.65625 -15.21875 15.144531 -15.332031 14.65625 -15.5625 C 14.175781 -15.800781 13.539062 -15.921875 12.75 -15.921875 C 11.957031 -15.921875 11.21875 -15.640625 10.53125 -15.078125 C 9.84375 -14.523438 9.5 -13.851562 9.5 -13.0625 L 9.5 -3.828125 C 9.5 -3.148438 9.472656 -2.640625 9.421875 -2.296875 C 9.378906 -1.960938 9.242188 -1.578125 9.015625 -1.140625 C 8.578125 -0.378906 7.429688 0 5.578125 0 C 4.171875 0 3.160156 -0.25 2.546875 -0.75 C 2.078125 -1.15625 1.816406 -1.785156 1.765625 -2.640625 C 1.765625 -2.929688 1.765625 -3.351562 1.765625 -3.90625 L 1.765625 -19.34375 C 1.765625 -20.019531 1.785156 -20.523438 1.828125 -20.859375 C 1.867188 -21.203125 1.992188 -21.578125 2.203125 -21.984375 C 2.609375 -22.773438 3.75 -23.171875 5.625 -23.171875 C 7.382812 -23.171875 8.484375 -22.832031 8.921875 -22.15625 C 9.242188 -21.6875 9.40625 -21.203125 9.40625 -20.703125 C 9.550781 -20.910156 9.765625 -21.160156 10.046875 -21.453125 C 10.328125 -21.742188 10.921875 -22.140625 11.828125 -22.640625 C 12.734375 -23.140625 13.53125 -23.390625 14.21875 -23.390625 C 14.90625 -23.390625 15.484375 -23.351562 15.953125 -23.28125 C 16.429688 -23.207031 16.945312 -23.082031 17.5 -22.90625 Z M 17.5 -22.90625 "/></g></g></g><g fill="#ed0e64" fill-opacity="1"><g transform="translate(265.618944, 243.428956)"><g><path d="M 24.09375 -14.359375 C 24.09375 -12.554688 23.644531 -11.222656 22.75 -10.359375 C 21.851562 -9.492188 20.863281 -9.0625 19.78125 -9.0625 L 9.359375 -9.0625 C 9.359375 -8.238281 9.84375 -7.546875 10.8125 -6.984375 C 11.78125 -6.429688 12.75 -6.15625 13.71875 -6.15625 C 15.414062 -6.15625 16.75 -6.332031 17.71875 -6.6875 L 18.203125 -6.859375 C 18.910156 -7.179688 19.5 -7.34375 19.96875 -7.34375 C 20.90625 -7.34375 21.707031 -6.679688 22.375 -5.359375 C 22.757812 -4.566406 22.953125 -3.894531 22.953125 -3.34375 C 22.953125 -0.726562 19.832031 0.578125 13.59375 0.578125 C 11.414062 0.578125 9.484375 0.203125 7.796875 -0.546875 C 6.117188 -1.296875 4.8125 -2.285156 3.875 -3.515625 C 2.019531 -5.890625 1.09375 -8.539062 1.09375 -11.46875 C 1.09375 -15.164062 2.285156 -18.117188 4.671875 -20.328125 C 7.066406 -22.546875 10.050781 -23.65625 13.625 -23.65625 C 17.695312 -23.65625 20.6875 -22.21875 22.59375 -19.34375 C 23.59375 -17.820312 24.09375 -16.160156 24.09375 -14.359375 Z M 14.8125 -13.0625 C 15.925781 -13.0625 16.484375 -13.53125 16.484375 -14.46875 C 16.484375 -15.144531 16.226562 -15.6875 15.71875 -16.09375 C 15.207031 -16.5 14.472656 -16.703125 13.515625 -16.703125 C 12.566406 -16.703125 11.625 -16.3125 10.6875 -15.53125 C 9.75 -14.757812 9.28125 -13.9375 9.28125 -13.0625 Z M 14.8125 -13.0625 "/></g></g></g></svg>